<svg xmlns="http://www.w3.org/2000/svg" width="201" height="54" viewBox="0 0 201 54" fill="none"><path d="M59.629 0H51.8367V7.81868H59.629V0Z" fill="#00FF88"></path><path d="M157.849 20.9796H148.979V29.8797H157.849V20.9796Z" fill="#00FF88"></path><path d="M173.144 27.4165L179.48 10.4347L185.699 27.4165H173.144ZM184.542 0.0438413L166.343 0V7.81868H171.571L157.866 43.4923H167.493L170.595 35.2425H188.328L191.314 43.4923H201L184.542 0.0438413Z" fill="white"></path><path d="M35.5678 0H0V7.82599H13.5164V43.5216H22.0587V7.82599H35.5678V0Z" fill="white"></path><path d="M44.9395 11.3333C42.8931 11.3333 41.1453 11.7132 39.6888 12.4805C38.2323 13.2477 36.8559 14.395 35.5815 15.9222V11.6475H27.2867V43.536H35.7563V29.4258C35.7563 27.8986 35.8582 26.5322 36.0912 25.3192C36.5136 23.0394 37.839 21.3514 39.8782 20.4672C42.529 19.3127 45.5294 19.415 47.7724 19.415V11.5744C47.0369 11.4283 46.1994 11.3333 44.9541 11.3333H44.9395Z" fill="white"></path><path d="M59.761 11.633H51.6774V43.5215H59.761V11.633Z" fill="white"></path><path d="M79.9263 36.8354C75.2509 36.8354 71.7917 33.0576 71.7917 27.6284C71.7917 22.1992 75.2509 18.3702 79.9263 18.3702C84.6017 18.3702 88.0099 22.1992 88.0099 27.6284C88.0099 33.0576 84.6672 36.8354 79.9263 36.8354ZM82.3514 10.7269C78.2004 10.7269 74.7921 12.4441 71.9592 16.3899H71.8427V11.6476H63.8756V54H71.9592V39.4222C73.7507 42.0528 76.9259 44.5007 81.7761 44.5007C89.4009 44.5007 96.3848 38.158 96.3848 27.4676C96.3848 18.2752 91.1341 10.7196 82.3587 10.7196L82.3514 10.7269Z" fill="white"></path><path d="M127.743 17.5807C131.384 17.5807 134.611 19.4659 135.186 24.3764H120.169C120.978 20.3793 123.578 17.5807 127.729 17.5807H127.743ZM128.318 37.2954C124.102 37.2954 120.468 34.6649 119.776 29.8713H143.335V27.7011C143.335 15.9804 135.827 10.7338 127.809 10.7338C118.392 10.7338 111.707 17.9314 111.707 27.7669C111.707 37.6023 118.866 44.5149 128.399 44.5149C135.907 44.5149 141.34 40.4521 143.466 35.2567L135.907 32.2243C134.458 35.5417 131.632 37.3028 128.348 37.3028H128.326L128.318 37.2954Z" fill="white"></path><path d="M94.8207 0V7.81868H100.02V43.5216H108.104V0H94.8207Z" fill="white"></path></svg>